<svg width="18" height="23" viewBox="0 0 18 23" xmlns="http://www.w3.org/2000/svg">
    <path d="M12.248 3.675C13.023 2.702 13.542 1.35 13.4 0c-1.11.045-2.462.773-3.257 1.742-.714.864-1.34 2.239-1.174 3.559 1.241.1 2.509-.655 3.28-1.626M18 16.87c-.027.079-.466 1.65-1.532 3.269-.92 1.403-1.877 2.8-3.385 2.828-1.477.03-1.953-.912-3.646-.912-1.691 0-2.22.885-3.62.942-1.456.06-2.56-1.515-3.49-2.91C.425 17.232-1.023 12.017.922 8.5c.97-1.749 2.697-2.853 4.574-2.883 1.43-.025 2.777.999 3.65.999.873 0 2.508-1.238 4.231-1.056.718.034 2.742.302 4.044 2.281-.108.071-2.416 1.467-2.39 4.378.028 3.48 2.934 4.638 2.968 4.652" fill="#000" fill-rule="evenodd"/>
</svg>
