<svg width="39" height="39" viewBox="0 0 39 39" xmlns="http://www.w3.org/2000/svg">
    <g fill="none" fill-rule="evenodd">
        <path d="M.576 14.816C3.162 4.36 13.733-2.011 24.184.576c10.453 2.585 16.827 13.155 14.24 23.607-2.586 10.452-13.155 16.829-23.607 14.241C4.364 35.838-2.013 25.27.577 14.816" fill="#27355E"/>
        <path d="m33.33 5.753-7.84 5.227V.948a19.407 19.407 0 0 0-12.032.014v10.02L5.65 5.775a19.36 19.36 0 0 0-4.229 6.426L3.49 13.58H.927a19.402 19.402 0 0 0 .06 12.032H3.54l-2.047 1.364a19.595 19.595 0 0 0 4.292 6.383l7.673-5.114v9.79c.444.144.896.275 1.358.388 3.66.907 7.333.712 10.673-.369v-9.809l7.704 5.135a19.39 19.39 0 0 0 4.302-6.375l-2.088-1.393h2.605c.154-.467.291-.944.411-1.429.9-3.634.715-7.28-.346-10.603H35.46l2.108-1.405a19.6 19.6 0 0 0-4.238-6.422" fill="#F0ECE2"/>
        <path d="m28.622 25.612 7.094 4.719c.486-.728.925-1.493 1.314-2.293l-3.648-2.426h-4.76zm10.077-9.525H22.985V.319a19.393 19.393 0 0 0-7.02.003v15.765H.307a19.363 19.363 0 0 0 .03 7.017h15.626v15.567a19.4 19.4 0 0 0 7.021.015V23.104H38.66c.45-2.38.444-4.75.04-7.017zM3.275 30.307a19.496 19.496 0 0 0 1.609 2.095l8.575-5.702v-1.088h-3.126l-7.058 4.695zm32.474-21.58a19.526 19.526 0 0 0-1.605-2.1l-8.654 5.756v1.197h2.964l7.295-4.852zM10.46 13.58 3.222 8.765c-.481.731-.918 1.498-1.302 2.302L5.7 13.58h4.76z" fill="#DB372D"/>
        <path d="M25.49 2.978v1.264c.077-.24.117-.467.118-.68 0-.21-.039-.405-.118-.584" fill="#2C3754"/>
    </g>
</svg>
