<svg width="21" height="21" viewBox="0 0 21 21" xmlns="http://www.w3.org/2000/svg">
    <defs>
        <linearGradient x1="50%" y1="97.078%" x2="50%" y2="0%" id="a">
            <stop stop-color="#0062E0" offset="0%"/>
            <stop stop-color="#19AFFF" offset="100%"/>
        </linearGradient>
    </defs>
    <g fill-rule="nonzero" fill="none">
        <path d="M0 10.5C0 4.725 4.725 0 10.5 0S21 4.725 21 10.5c0 5.192-3.792 9.508-8.75 10.383l-.583-.466H9.333l-.583.466C3.792 20.008 0 15.692 0 10.5z" fill="url(#a)"/>
        <path d="M15.05 10.5h-2.8V8.458c0-.816.292-1.458 1.575-1.458h1.342V4.317c-.759-.117-1.575-.234-2.334-.234-2.391 0-4.083 1.459-4.083 4.084V10.5H6.125v2.917H8.75v7.408A8.903 8.903 0 0 0 10.5 21c.583 0 1.167-.058 1.75-.175v-7.408h2.333l.467-2.917z" fill="#FFF"/>
    </g>
</svg>
