<svg width="21" height="21" viewBox="0 0 21 21" xmlns="http://www.w3.org/2000/svg">
    <g fill="none" fill-rule="evenodd">
        <path d="M20.389 8.59H10.5v4.063h5.65a4.83 4.83 0 0 1-2.094 3.169v2.634h3.393c1.985-1.828 3.131-4.52 3.131-7.717 0-.745-.067-1.46-.191-2.148z" fill="#4285F4"/>
        <path d="m17.449 18.456-3.393-2.634c-.94.63-2.143 1.002-3.556 1.002-2.735 0-5.05-1.847-5.875-4.329H1.117v2.72A10.496 10.496 0 0 0 10.5 21c2.835 0 5.212-.94 6.949-2.544z" fill="#34A853"/>
        <path d="M4.295 10.5c0-.692.12-1.365.33-1.995v-2.72H1.117A10.496 10.496 0 0 0 0 10.5c0 1.694.406 3.298 1.117 4.715l3.508-2.72a6.312 6.312 0 0 1-.33-1.995z" fill="#FBBC05"/>
        <path d="m14.514 5.746 3.011-3.011C15.707 1.04 13.33 0 10.5 0a10.496 10.496 0 0 0-9.383 5.785l3.508 2.72c.825-2.482 3.14-4.329 5.875-4.329 1.542 0 2.926.53 4.014 1.57z" fill="#EA4335"/>
        <path d="M21 0v21H0V0h21z"/>
    </g>
</svg>
