<svg width="24" height="24" viewBox="0 0 24 24" xmlns="http://www.w3.org/2000/svg">
    <g fill="#6094EA" fill-rule="evenodd">
        <circle fill-opacity=".2" cx="12" cy="12" r="12"/>
        <g fill-rule="nonzero">
            <path d="M12 4.286h1.714V6H12zM13.408 16.81a.849.849 0 0 1-.737.447.839.839 0 0 1-.684-.362.945.945 0 0 1-.135-.795l1.686-6.063c.352-1.264-.292-2.599-1.467-3.038-1.175-.439-2.469.171-2.946 1.388L8.571 9.8l1.397.613.554-1.411c.169-.433.628-.65 1.045-.494.417.156.645.63.52 1.078L10.4 15.648a2.62 2.62 0 0 0 .375 2.206 2.325 2.325 0 0 0 1.895 1.003c.841-.002 1.619-.474 2.044-1.242l.714-1.296-1.307-.805-.714 1.295z"/>
        </g>
    </g>
</svg>
